<svg xmlns="http://www.w3.org/2000/svg" xmlns:xlink="http://www.w3.org/1999/xlink" width="450" zoomAndPan="magnify" viewBox="0 0 337.5 148.499996" height="198" preserveAspectRatio="xMidYMid meet" version="1.0"><defs><g/><clipPath id="74fa24eabd"><path d="M 37.984375 38.144531 L 299.242188 38.144531 L 299.242188 110.007812 L 37.984375 110.007812 Z M 37.984375 38.144531 " clip-rule="nonzero"/></clipPath><clipPath id="3c7d3b6996"><path d="M 45.042969 44.902344 L 168.582031 44.902344 L 168.582031 103.316406 L 45.042969 103.316406 Z M 45.042969 44.902344 " clip-rule="nonzero"/></clipPath></defs><g clip-path="url(#74fa24eabd)"><path stroke-linecap="butt" transform="matrix(0.748792, 0, 0, 0.74786, 37.985457, 38.143632)" fill="none" stroke-linejoin="miter" d="M -0.00144452 0.0012028 L 348.904424 0.0012028 L 348.904424 96.093069 L -0.00144452 96.093069 L -0.00144452 0.0012028 " stroke="#000000" stroke-width="6" stroke-opacity="1" stroke-miterlimit="4"/></g><g clip-path="url(#3c7d3b6996)"><path fill="#000000" d="M 45.042969 44.902344 L 168.765625 44.902344 L 168.765625 103.398438 L 45.042969 103.398438 Z M 45.042969 44.902344 " fill-opacity="1" fill-rule="nonzero"/></g><g fill="#ffffff" fill-opacity="1"><g transform="translate(48.352965, 83.211586)"><g><path d="M 11.550781 0.363281 C 16.316406 0.363281 20.183594 -2.523438 21.363281 -6.898438 L 18.753906 -6.898438 C 17.746094 -3.953125 14.96875 -2.101562 11.632812 -2.101562 C 7.261719 -2.101562 4.148438 -5.269531 4.148438 -9.8125 C 4.148438 -14.355469 7.261719 -17.523438 11.632812 -17.523438 C 14.886719 -17.523438 17.550781 -15.785156 18.558594 -12.953125 L 21.195312 -12.953125 C 19.90625 -17.269531 16.175781 -19.988281 11.550781 -19.988281 C 5.773438 -19.988281 1.625 -15.726562 1.625 -9.8125 C 1.625 -3.898438 5.773438 0.363281 11.550781 0.363281 Z M 11.550781 0.363281 "/></g></g></g><g fill="#ffffff" fill-opacity="1"><g transform="translate(73.352406, 83.211586)"><g><path d="M 11.773438 0.363281 C 17.746094 0.363281 21.953125 -3.839844 21.953125 -9.8125 C 21.953125 -15.785156 17.746094 -19.988281 11.773438 -19.988281 C 5.804688 -19.988281 1.625 -15.785156 1.625 -9.8125 C 1.625 -3.839844 5.804688 0.363281 11.773438 0.363281 Z M 4.148438 -9.8125 C 4.148438 -14.382812 7.261719 -17.523438 11.773438 -17.523438 C 16.289062 -17.523438 19.398438 -14.382812 19.398438 -9.8125 C 19.398438 -5.242188 16.289062 -2.101562 11.773438 -2.101562 C 7.261719 -2.101562 4.148438 -5.242188 4.148438 -9.8125 Z M 4.148438 -9.8125 "/></g></g></g><g fill="#ffffff" fill-opacity="1"><g transform="translate(99.024453, 83.211586)"><g><path d="M 2.859375 0 L 5.296875 0 L 5.296875 -15.363281 L 16.148438 0 L 18.445312 0 L 18.445312 -19.625 L 16.035156 -19.625 L 16.035156 -4.261719 L 5.1875 -19.625 L 2.859375 -19.625 Z M 2.859375 0 "/></g></g></g><g fill="#ffffff" fill-opacity="1"><g transform="translate(122.454475, 83.211586)"><g><path d="M 0.476562 0 L 3.113281 0 L 4.90625 -4.457031 L 14.464844 -4.457031 L 16.316406 0 L 18.921875 0 L 10.847656 -19.625 L 8.550781 -19.625 Z M 5.859375 -6.757812 L 9.699219 -16.175781 L 13.539062 -6.757812 Z M 5.859375 -6.757812 "/></g></g></g><g fill="#ffffff" fill-opacity="1"><g transform="translate(143.978776, 83.211586)"><g><path d="M 2.859375 0 L 5.296875 0 L 5.296875 -15.363281 L 16.148438 0 L 18.445312 0 L 18.445312 -19.625 L 16.035156 -19.625 L 16.035156 -4.261719 L 5.1875 -19.625 L 2.859375 -19.625 Z M 2.859375 0 "/></g></g></g><g fill="#000000" fill-opacity="1"><g transform="translate(182.697928, 83.362562)"><g><path d="M 11.242188 0.421875 C 16.652344 0.421875 20.746094 -2.859375 21.585938 -7.847656 L 15.839844 -7.847656 C 15.136719 -6 13.484375 -4.820312 11.355469 -4.820312 C 8.605469 -4.820312 6.699219 -6.867188 6.699219 -9.8125 C 6.699219 -12.785156 8.632812 -14.800781 11.410156 -14.800781 C 13.457031 -14.800781 15.167969 -13.652344 15.753906 -11.886719 L 21.472656 -11.886719 C 20.464844 -16.847656 16.429688 -20.042969 11.183594 -20.042969 C 5.128906 -20.042969 0.953125 -15.867188 0.953125 -9.8125 C 0.953125 -3.757812 5.128906 0.421875 11.242188 0.421875 Z M 11.242188 0.421875 "/></g></g></g><g fill="#000000" fill-opacity="1"><g transform="translate(205.179776, 83.362562)"><g><path d="M 11.632812 0.421875 C 17.886719 0.421875 22.316406 -3.8125 22.316406 -9.8125 C 22.316406 -15.8125 17.886719 -20.042969 11.632812 -20.042969 C 5.382812 -20.042969 0.953125 -15.8125 0.953125 -9.8125 C 0.953125 -3.8125 5.382812 0.421875 11.632812 0.421875 Z M 6.699219 -9.8125 C 6.699219 -12.753906 8.746094 -14.800781 11.632812 -14.800781 C 14.550781 -14.800781 16.566406 -12.753906 16.566406 -9.8125 C 16.566406 -6.867188 14.550781 -4.820312 11.632812 -4.820312 C 8.746094 -4.820312 6.699219 -6.867188 6.699219 -9.8125 Z M 6.699219 -9.8125 "/></g></g></g><g fill="#000000" fill-opacity="1"><g transform="translate(228.474566, 83.362562)"><g><path d="M 2.074219 0 L 10.402344 0 C 16.734375 0 20.941406 -3.898438 20.941406 -9.8125 C 20.941406 -15.699219 16.734375 -19.625 10.402344 -19.625 L 2.074219 -19.625 Z M 7.738281 -5.074219 L 7.738281 -14.550781 L 10.230469 -14.550781 C 13.230469 -14.550781 15.167969 -12.699219 15.167969 -9.8125 C 15.167969 -6.925781 13.230469 -5.074219 10.230469 -5.074219 Z M 7.738281 -5.074219 "/></g></g></g><g fill="#000000" fill-opacity="1"><g transform="translate(250.367735, 83.362562)"><g><path d="M 2.074219 0 L 15.839844 0 L 15.839844 -4.625 L 7.679688 -4.625 L 7.679688 -7.652344 L 14.773438 -7.652344 L 14.773438 -12.195312 L 7.679688 -12.195312 L 7.679688 -15.054688 L 15.53125 -15.054688 L 15.53125 -19.625 L 2.074219 -19.625 Z M 2.074219 0 "/></g></g></g><g fill="#000000" fill-opacity="1"><g transform="translate(267.467394, 83.362562)"><g><path d="M 9.109375 0.421875 C 13.988281 0.421875 16.875 -1.878906 16.875 -5.746094 C 16.875 -9 14.773438 -10.90625 10.007812 -11.96875 C 7.484375 -12.53125 6.558594 -13.148438 6.558594 -14.15625 C 6.558594 -15.109375 7.402344 -15.699219 8.71875 -15.699219 C 10.289062 -15.699219 11.183594 -14.886719 11.183594 -13.398438 L 16.511719 -13.398438 C 16.511719 -17.4375 13.429688 -20.042969 8.605469 -20.042969 C 3.980469 -20.042969 1.121094 -17.746094 1.121094 -14.046875 C 1.121094 -10.738281 3.28125 -8.691406 7.710938 -7.847656 C 10.09375 -7.371094 11.242188 -6.644531 11.242188 -5.523438 C 11.242188 -4.542969 10.402344 -3.980469 9.027344 -3.980469 C 7.402344 -3.980469 6.449219 -4.851562 6.449219 -6.363281 L 0.980469 -6.363281 C 0.980469 -2.128906 4.007812 0.421875 9.109375 0.421875 Z M 9.109375 0.421875 "/></g></g></g></svg>